<?xml version="1.0" standalone="no"?>
<!DOCTYPE svg PUBLIC "-//W3C//DTD SVG 20010904//EN"
 "http://www.w3.org/TR/2001/REC-SVG-20010904/DTD/svg10.dtd">
<svg version="1.0" xmlns="http://www.w3.org/2000/svg"
 width="222.000000pt" height="227.000000pt" viewBox="0 0 222.000000 227.000000"
 preserveAspectRatio="xMidYMid meet">

<g transform="translate(0.000000,227.000000) scale(0.100000,-0.100000)"
fill="#000000" stroke="none">
<path d="M1170 2104 c67 -39 126 -68 115 -56 -13 13 -141 82 -152 82 -4 0 12
-12 37 -26z"/>
<path d="M1300 2036 c0 -3 14 -12 30 -21 17 -9 30 -13 30 -11 0 3 -13 12 -30
21 -16 9 -30 13 -30 11z"/>
<path d="M1375 1993 c14 -14 172 -98 160 -85 -5 6 -46 30 -90 53 -44 23 -75
38 -70 32z"/>
<path d="M937 1948 c-19 -24 -46 -60 -60 -80 -42 -62 -70 -92 -112 -117 -72
-43 -134 -86 -135 -93 0 -3 13 -9 29 -13 22 -5 40 0 68 18 51 32 226 112 281
128 32 9 41 16 37 28 -3 8 -3 12 1 9 6 -7 44 33 44 45 0 3 -25 11 -55 17 -57
12 -84 37 -68 64 6 11 71 -3 328 -70 176 -46 328 -88 337 -93 10 -6 19 -7 23
-1 8 13 4 15 -185 65 -117 31 -204 61 -261 90 -66 33 -90 40 -104 33 -17 -10
-83 -6 -117 7 -11 4 -27 -8 -51 -37z"/>
<path d="M1264 1829 c65 -33 124 -58 132 -55 8 3 13 1 11 -4 -2 -8 234 -130
251 -130 4 0 -8 10 -26 21 l-33 22 38 23 c27 16 34 24 23 28 -21 8 -270 67
-300 71 -14 2 -61 22 -104 44 -44 23 -87 41 -95 40 -9 0 37 -27 103 -60z"/>
<path d="M1130 1743 c-8 -3 -32 -14 -52 -24 -21 -10 -38 -16 -38 -13 0 4 -7 1
-15 -6 -24 -20 -248 -135 -342 -175 -24 -10 -41 -20 -40 -21 5 -5 222 67 232
77 5 5 12 9 17 9 4 0 -17 -24 -47 -54 -29 -30 -58 -64 -64 -75 -6 -11 -17 -19
-24 -17 -6 1 -9 1 -4 -1 12 -8 8 -23 -7 -23 -8 0 -16 -3 -19 -7 -2 -5 -2 -2
-1 5 4 15 12 16 -79 -13 -117 -37 -120 -40 -55 -60 45 -15 54 -21 51 -36 -3
-10 -9 -16 -14 -13 -5 3 -12 -3 -16 -13 -4 -10 -17 -29 -30 -43 -29 -31 -29
-50 -2 -50 14 0 19 -5 17 -17 -3 -19 -6 -20 -64 -22 -35 -1 -35 -1 -32 -43 l3
-43 60 -16 c33 -9 71 -21 85 -27 26 -10 90 -5 90 7 0 22 356 123 368 104 6 -9
373 -66 502 -78 l55 -4 -45 10 c-25 6 -50 11 -57 11 -7 1 -10 5 -8 8 3 4 -4
19 -15 33 -11 14 -20 37 -20 52 0 25 2 24 40 -23 46 -59 78 -84 37 -29 l-28
37 31 7 c37 7 22 23 -22 23 -17 0 -34 10 -47 26 -20 25 -25 26 -84 21 -45 -5
-102 1 -209 20 l-147 26 -7 42 c-3 24 -1 51 5 63 10 20 11 20 93 0 179 -43
247 -59 340 -79 l98 -22 107 38 c82 30 102 40 87 46 -10 5 -212 40 -448 79
-237 39 -434 74 -438 76 -13 9 -9 84 5 84 6 0 48 -7 92 -15 44 -9 141 -27 215
-40 74 -13 233 -42 353 -64 234 -44 241 -45 233 -33 -3 5 -38 14 -78 22 -40 7
-84 17 -98 22 l-25 10 23 12 c21 11 14 16 -105 65 -70 28 -159 68 -196 87 -38
19 -72 34 -77 32 -5 -2 65 -45 156 -96 91 -52 164 -95 162 -97 -2 -1 -56 8
-122 21 -106 21 -206 57 -206 74 0 8 -55 4 -69 -4 -11 -7 -142 12 -153 22 -4
4 5 8 20 9 14 0 28 6 30 12 2 6 13 11 25 11 26 1 109 41 114 56 3 8 -26 23
-77 41 -3 1 -12 -1 -20 -4z m113 -620 c-7 -2 -21 -2 -30 0 -10 3 -4 5 12 5 17
0 24 -2 18 -5z m60 -10 c-7 -2 -19 -2 -25 0 -7 3 -2 5 12 5 14 0 19 -2 13 -5z"/>
<path d="M1678 1043 c7 -3 16 -2 19 1 4 3 -2 6 -13 5 -11 0 -14 -3 -6 -6z"/>
<path d="M1005 994 c-33 -7 -127 -23 -210 -35 -82 -11 -151 -22 -153 -24 -10
-10 529 8 613 20 55 8 118 16 140 18 26 2 17 4 -25 5 -57 2 -103 6 -265 26
-22 2 -67 -2 -100 -10z"/>
<path d="M1470 964 c0 -3 14 -10 31 -16 16 -6 28 -12 26 -14 -2 -2 -23 2 -45
10 -23 9 -42 12 -42 8 0 -10 151 -55 158 -47 3 3 0 5 -6 5 -7 0 -12 5 -12 10
0 6 17 10 38 11 20 0 46 4 57 9 16 7 12 9 -20 10 -22 1 -48 3 -57 5 -41 8
-128 14 -128 9z"/>
<path d="M960 793 c-208 -6 -435 -23 -438 -33 -2 -5 -30 -10 -62 -10 -56 0
-58 -1 -69 -31 -6 -18 -11 -63 -11 -100 0 -88 5 -92 182 -113 301 -36 607 -67
668 -67 91 -1 549 60 583 78 65 33 17 33 -303 -2 -138 -16 -253 -25 -257 -21
-13 12 -23 123 -17 184 l6 63 262 -7 c348 -9 384 1 121 34 -194 25 -398 32
-665 25z"/>
</g>
</svg>
